<svg width="38" height="38" viewBox="0 0 38 38" fill="none" xmlns="http://www.w3.org/2000/svg">
<path fill-rule="evenodd" clip-rule="evenodd" d="M26 22C31.5228 22 36 17.5228 36 12C36 6.47715 31.5228 2 26 2C20.4772 2 16 6.47715 16 12C16 17.5228 20.4772 22 26 22Z" fill="#C7A17A"/>
<path d="M29.5316 16.0622C29.653 16.0622 29.751 16.0996 29.8256 16.1742C29.9003 16.2396 29.9376 16.3282 29.9376 16.4402C29.9376 16.6922 29.8023 16.8182 29.5316 16.8182H23.9596C23.829 16.8182 23.7263 16.7809 23.6516 16.7062C23.577 16.6316 23.5396 16.5429 23.5396 16.4402C23.5396 16.3096 23.5863 16.1976 23.6796 16.1042L27.1376 12.2542C27.6323 11.6849 27.9916 11.1809 28.2156 10.7422C28.4396 10.3036 28.5516 9.8649 28.5516 9.42624C28.5516 8.83824 28.379 8.38557 28.0336 8.06824C27.6976 7.7509 27.2216 7.59224 26.6056 7.59224C26.1296 7.59224 25.677 7.6809 25.2476 7.85824C24.8276 8.02624 24.3936 8.2969 23.9456 8.67024C23.843 8.76357 23.7356 8.81024 23.6236 8.81024C23.549 8.81024 23.4836 8.7729 23.4276 8.69824C23.3716 8.62357 23.3436 8.5349 23.3436 8.43224C23.3436 8.27357 23.4043 8.13824 23.5256 8.02624C23.899 7.66224 24.361 7.3729 24.9116 7.15824C25.4623 6.94357 26.027 6.83624 26.6056 6.83624C27.4736 6.83624 28.1596 7.0649 28.6636 7.52224C29.1676 7.97024 29.4196 8.5909 29.4196 9.38424C29.4196 9.95357 29.289 10.5042 29.0276 11.0362C28.7663 11.5682 28.337 12.1656 27.7396 12.8282L24.7856 16.0622H29.5316Z" fill="#F9FBFF"/>
</svg>
